<?xml version="1.0" encoding="UTF-8" standalone="no"?>
<svg
   xmlns:dc="http://purl.org/dc/elements/1.1/"
   xmlns:cc="http://creativecommons.org/ns#"
   xmlns:rdf="http://www.w3.org/1999/02/22-rdf-syntax-ns#"
   xmlns:svg="http://www.w3.org/2000/svg"
   xmlns="http://www.w3.org/2000/svg"
   xmlns:sodipodi="http://sodipodi.sourceforge.net/DTD/sodipodi-0.dtd"
   xmlns:inkscape="http://www.inkscape.org/namespaces/inkscape"
   id="b05a6369-67c7-4001-9b85-a83fbbd225d4"
   data-name="Layer 1"
   width="692"
   height="499.87671"
   viewBox="0 0 692 499.87671"
   version="1.1"
   sodipodi:docname="login.png.svg"
   inkscape:export-filename="F:\Responsive Personal Portfolio Website - HTML, CSS &amp; Vanilla Javascript\Responsive Personal Portfolio Website - HTML, CSS &amp; Vanilla Javascript\images\login.png"
   inkscape:export-xdpi="96"
   inkscape:export-ydpi="96"
   inkscape:version="1.0.1 (3bc2e813f5, 2020-09-07)">
  <metadata
     id="metadata135">
    <rdf:RDF>
      <cc:Work
         rdf:about="">
        <dc:format>image/svg+xml</dc:format>
        <dc:type
           rdf:resource="http://purl.org/dc/dcmitype/StillImage" />
        <dc:title></dc:title>
      </cc:Work>
    </rdf:RDF>
  </metadata>
  <defs
     id="defs133" />
  <sodipodi:namedview
     pagecolor="#ffffff"
     bordercolor="#666666"
     borderopacity="1"
     objecttolerance="10"
     gridtolerance="10"
     guidetolerance="10"
     inkscape:pageopacity="0"
     inkscape:pageshadow="2"
     inkscape:window-width="1280"
     inkscape:window-height="737"
     id="namedview131"
     showgrid="false"
     inkscape:zoom="0.43852551"
     inkscape:cx="-97.655952"
     inkscape:cy="378.47752"
     inkscape:window-x="-8"
     inkscape:window-y="-8"
     inkscape:window-maximized="1"
     inkscape:current-layer="b05a6369-67c7-4001-9b85-a83fbbd225d4" />
  <path
     d="M945,696.10473H255a1,1,0,0,1,0-2H945a1,1,0,0,1,0,2Z"
     transform="translate(-254 -200.06165)"
     fill="#ccc"
     id="path2" />
  <path
     d="M876.70437,521.703h-406a6.5,6.5,0,1,0,0,13h11.5v155.5a6.5,6.5,0,0,0,13,0l.09878-155.5H851.20437v155.5a6.5,6.5,0,0,0,13,0V538.13036l1.89111-3.42737h10.60889a6.5,6.5,0,1,0,0-13Z"
     transform="translate(-254 -200.06165)"
     fill="#ccc"
     id="path4" />
  <path
     d="M695.79406,525.10473H572.81224a8.992,8.992,0,0,1-8.98182-8.98182V448.41382a8.992,8.992,0,0,1,8.98182-8.98182H695.79406a8.992,8.992,0,0,1,8.98182,8.98182v67.70909A8.992,8.992,0,0,1,695.79406,525.10473Z"
     transform="translate(-254 -200.06165)"
     fill="#3f3d56"
     id="path6" />
  <path
     d="M695.79338,446.34472H572.81292a2.07422,2.07422,0,0,0-2.06983,2.07v67.71a2.07427,2.07427,0,0,0,2.06983,2.07H695.79338a2.07427,2.07427,0,0,0,2.06983-2.07v-67.71A2.07422,2.07422,0,0,0,695.79338,446.34472Z"
     transform="translate(-254 -200.06165)"
     fill="#fff"
     id="path8" />
  <path
     d="M706.1577,516.81382H693.03042a1.38183,1.38183,0,0,0-1.38182-1.38182h-4.14545a1.38184,1.38184,0,0,0-1.38182,1.38182h-4.14545a1.38184,1.38184,0,0,0-1.38182-1.38182H676.4486a1.38183,1.38183,0,0,0-1.38181,1.38182h-4.14546a1.38183,1.38183,0,0,0-1.38182-1.38182h-4.14545a1.38184,1.38184,0,0,0-1.38182,1.38182h-4.14545A1.38184,1.38184,0,0,0,658.485,515.432h-4.14546a1.38183,1.38183,0,0,0-1.38181,1.38182h-4.14546a1.38183,1.38183,0,0,0-1.38182-1.38182H643.285a1.38183,1.38183,0,0,0-1.38182,1.38182H637.7577a1.38184,1.38184,0,0,0-1.38182-1.38182h-4.14546a1.38184,1.38184,0,0,0-1.38182,1.38182h-4.14545a1.38183,1.38183,0,0,0-1.38182-1.38182h-4.14545a1.38183,1.38183,0,0,0-1.38182,1.38182H615.6486a1.38183,1.38183,0,0,0-1.38181-1.38182h-4.14546a1.38184,1.38184,0,0,0-1.38182,1.38182h-4.14545a1.38184,1.38184,0,0,0-1.38182-1.38182h-4.14545a1.38183,1.38183,0,0,0-1.38182,1.38182h-4.14546a1.38183,1.38183,0,0,0-1.38181-1.38182h-4.14546a1.38184,1.38184,0,0,0-1.38182,1.38182H582.485a1.38184,1.38184,0,0,0-1.38182-1.38182H576.9577a1.38183,1.38183,0,0,0-1.38182,1.38182H562.4486a4.14546,4.14546,0,0,0,0,8.29091H706.1577a4.14545,4.14545,0,0,0,0-8.29091Z"
     transform="translate(-254 -200.06165)"
     fill="#3f3d56"
     id="path18" />
  <path
     d="M608.30315,618.10473v-24a4.00008,4.00008,0,0,0-4-4h-91a4.00008,4.00008,0,0,0-4,4v24Z"
     transform="translate(-254 -200.06165)"
     fill="#ccc"
     id="path44" />
  <rect
     x="255.30315"
     y="427.04308"
     width="99"
     height="31"
     fill="#ccc"
     id="rect46" />
  <path
     d="M509.30315,667.10473v24a4.00008,4.00008,0,0,0,4,4h91a4.00008,4.00008,0,0,0,4-4v-24Z"
     transform="translate(-254 -200.06165)"
     fill="#ccc"
     id="path48" />
  <circle
     cx="304.30315"
     cy="405.04308"
     r="3"
     fill="#fff"
     id="circle50" />
  <circle
     cx="304.30315"
     cy="445.04308"
     r="3"
     fill="#fff"
     id="circle52" />
  <circle
     cx="304.46392"
     cy="484.19608"
     r="3"
     fill="#fff"
     id="circle54" />
  <path
     d="M597.07906,562.73994v27.52572H528.11681a13.77119,13.77119,0,1,1,0-27.52572Z"
     transform="translate(-254 -200.06165)"
     fill="#f2f2f2"
     id="path56" />
  <g
     id="g966"
     transform="matrix(0.82761028,0,0,0.75156869,15.661102,45.443337)"
     style="stroke-width:1.26795">
    <path
       d="m 504.11035,383.08308 v -175.5 a 7.53,7.53 0 0 1 7.52143,-7.52143 h 138.72857 a 7.53005,7.53005 0 0 1 7.52143,7.52143 v 175.5 a 7.53,7.53 0 0 1 -7.52143,7.52142 H 511.63178 a 7.53,7.53 0 0 1 -7.52143,-7.52142 z m 7.52143,-181.35 a 5.85656,5.85656 0 0 0 -5.85,5.85 v 175.5 a 5.85657,5.85657 0 0 0 5.85,5.85 h 138.72857 a 5.85658,5.85658 0 0 0 5.85,-5.85 v -175.5 a 5.85657,5.85657 0 0 0 -5.85,-5.85 z"
       transform="translate(-254,-200.06165)"
       fill="#e6e6e6"
       id="path68"
       style="stroke-width:1.6077" />
    <path
       d="m 588.77549,280.65936 v -36.03569 a 3.7649,3.7649 0 0 1 3.76072,-3.76072 h 30.537 a 3.7649,3.7649 0 0 1 3.76072,3.76072 v 36.03569 a 3.76489,3.76489 0 0 1 -3.76072,3.76071 h -30.537 a 3.76489,3.76489 0 0 1 -3.76072,-3.76071 z"
       transform="translate(-254,-200.06165)"
       fill="#6c63ff"
       id="path70"
       style="stroke-width:1.6077" />
    <path
       d="M 529.43978,297.37364 V 261.338 a 3.76489,3.76489 0 0 1 3.76071,-3.76071 h 30.537 a 3.76489,3.76489 0 0 1 3.76071,3.76071 v 36.03569 a 3.7649,3.7649 0 0 1 -3.76071,3.76072 h -30.537 a 3.7649,3.7649 0 0 1 -3.76071,-3.76077 z"
       transform="translate(-254,-200.06165)"
       fill="#cccccc"
       id="path72"
       style="stroke-width:1.6077" />
    <path
       d="m 577.07549,348.35221 v -36.03569 a 3.7649,3.7649 0 0 1 3.76072,-3.76071 h 30.537 a 3.7649,3.7649 0 0 1 3.76072,3.76071 v 36.03569 a 3.7649,3.7649 0 0 1 -3.76072,3.76072 h -30.537 a 3.7649,3.7649 0 0 1 -3.76072,-3.76072 z"
       transform="translate(-254,-200.06165)"
       fill="#ff6584"
       id="path74"
       style="fill:#00ffff;stroke-width:1.26795" />
  </g>
  <path
     d="M759.56292,513.10473H728.143a1.94143,1.94143,0,0,0-.85986.2l-7.93018,3.97a1.44516,1.44516,0,0,0,0,2.66l7.93018,3.97a1.94143,1.94143,0,0,0,.85986.2h31.41993a1.64908,1.64908,0,0,0,1.74023-1.53v-7.93994A1.64908,1.64908,0,0,0,759.56292,513.10473Z"
     transform="translate(-254 -200.06165)"
     fill="#3f3d56"
     id="path76" />
  <path
     d="M761.30315,514.63476v7.93994a1.64908,1.64908,0,0,1-1.74023,1.53h-6.25977v-11h6.25977A1.64908,1.64908,0,0,1,761.30315,514.63476Z"
     transform="translate(-254 -200.06165)"
     fill="#6c63ff"
     id="path78" />
  <path
     d="M759.3265,453.70453a11.00278,11.00278,0,0,1,14.8905,6.9146,10.58813,10.58813,0,0,1,.32019,1.435l43.93794,21.78816,10.16835-6.73853,12.65178,14.56532L825.76934,504.2789a11.1485,11.1485,0,0,1-13.30125.513l-44.57918-30.82819a10.51075,10.51075,0,0,1-1.01489.3701,11.00314,11.00314,0,0,1-14.01048-8.56076,10.70772,10.70772,0,0,1-.16253-1.33951A11.036,11.036,0,0,1,759.3265,453.70453Z"
     transform="translate(-254 -200.06165)"
     fill="#ffb8b8"
     id="path80" />
  <path
     d="M850.84106,587.8533H802.83129c0,1.38-49.48,2.5-49.48,2.5a12.85953,12.85953,0,0,0-2.10986,2,12.41025,12.41025,0,0,0-2.90039,8v2a12.5046,12.5046,0,0,0,12.5,12.5h90a12.51088,12.51088,0,0,0,12.5-12.5v-2A12.51735,12.51735,0,0,0,850.84106,587.8533Z"
     transform="translate(-254 -200.06165)"
     fill="#3f3d56"
     id="path82" />
  <rect
     x="798.6175"
     y="614.35671"
     width="13"
     height="84"
     transform="translate(1356.235 1112.65178) rotate(-180)"
     fill="#3f3d56"
     id="rect84" />
  <path
     d="M761.6175,697.9c0,1.40463,19.69947.54331,44,.54331s44,.86132,44-.54331-19.69947-12.54331-44-12.54331S761.6175,696.49539,761.6175,697.9Z"
     transform="translate(-254 -200.06165)"
     fill="#3f3d56"
     id="path86" />
  <polygon
     points="519.353 487.993 507.094 487.992 501.261 456.195 519.355 456.196 519.353 487.993"
     fill="#ffb8b8"
     id="polygon88" />
  <path
     d="M776.47983,699.93835l-39.53052-.00146v-.5a15.38605,15.38605,0,0,1,15.38647-15.38623h.001l24.1438.001Z"
     transform="translate(-254 -200.06165)"
     fill="#2f2e41"
     id="path90" />
  <path
     d="M755.01663,668.33665,730.57571,613.529a20.086,20.086,0,0,1,8.8186-25.78418l53.01343-28.42773,24.19116-2.05762,22.3147-2.02832.16089.27246c.20581.34766,5.00366,8.63477,1.7605,17.72168-2.46,6.89258-8.85889,12.27637-19.0188,16.00195-23.71436,8.69532-51.10913,16.127-61.78638,18.918a3.45079,3.45079,0,0,0-2.21118,1.75977,3.49812,3.49812,0,0,0-.19629,2.79883l22.70654,51.01464a4.49992,4.49992,0,0,1-3.80932,6.0293L759.553,670.98313q-.21606.02051-.43017.02051A4.49688,4.49688,0,0,1,755.01663,668.33665Z"
     transform="translate(-254 -200.06165)"
     fill="#2f2e41"
     id="path92" />
  <polygon
     points="525.353 487.993 513.094 487.992 507.261 456.195 525.355 456.196 525.353 487.993"
     fill="#ffb8b8"
     id="polygon94" />
  <path
     d="M782.47983,699.93835l-39.53052-.00146v-.5a15.38605,15.38605,0,0,1,15.38647-15.38623h.001l24.1438.001Z"
     transform="translate(-254 -200.06165)"
     fill="#2f2e41"
     id="path96" />
  <path
     d="M762.01663,671.33665,737.57571,616.529a20.086,20.086,0,0,1,8.8186-25.78418l53.01343-28.42773,24.19116-2.05762,22.3147-2.02832.16089.27246c.20581.34766,5.00366,8.63477,1.7605,17.72168-2.46,6.89258-8.85889,12.27637-19.0188,16.00195-23.71436,8.69532-51.10913,16.127-61.78638,18.918a3.45079,3.45079,0,0,0-2.21118,1.75977,3.49812,3.49812,0,0,0-.19629,2.79883l22.70654,51.01464a4.49992,4.49992,0,0,1-3.80932,6.0293L766.553,673.98313q-.21606.02051-.43017.02051A4.49688,4.49688,0,0,1,762.01663,671.33665Z"
     transform="translate(-254 -200.06165)"
     fill="#2f2e41"
     id="path98" />
  <path
     d="M749.83452,503.90591a167.50633,167.50633,0,0,1-24.0754-44.93173,4.30258,4.30258,0,0,1,2.03179-5.17938l35.14526-18.83159a4.2466,4.2466,0,0,1,3.72553-.15123,4.31914,4.31914,0,0,1,2.46131,2.884,102.32846,102.32846,0,0,0,22.44563,41.89073,4.31809,4.31809,0,0,1,1.03824,3.64654,4.24658,4.24658,0,0,1-2.1894,3.01811L755.27223,505.083A4.30258,4.30258,0,0,1,749.83452,503.90591Z"
     transform="translate(-254 -200.06165)"
     fill="#ccc"
     id="path100" />
  <path
     d="M752.23284,502.10375a1.29853,1.29853,0,0,0,1.62207.335l35.14551-18.832a1.24591,1.24591,0,0,0,.65258-.897,1.31807,1.31807,0,0,0-.325-1.12793,105.34018,105.34018,0,0,1-23.10693-43.125,1.31863,1.31863,0,0,0-.75806-.895,1.24691,1.24691,0,0,0-1.11035.0459L729.20793,456.4392a1.29831,1.29831,0,0,0-.61962,1.53711,164.50711,164.50711,0,0,0,23.64453,44.12744Z"
     transform="translate(-254 -200.06165)"
     fill="#fff"
     id="path102" />
  <path
     d="M866.59251,498.88255l-27.52466,10.45937-6.72-18.66664a11.16823,11.16823,0,0,1,5.002-13.4995l0,0a11.16823,11.16823,0,0,1,14.26249,2.78445Z"
     transform="translate(-254 -200.06165)"
     fill="#6c63ff"
     id="path104"
     style="fill:#00ffff" />
  <path
     d="M796.58273,572.84256a4.99862,4.99862,0,0,1-2.0835-3.54883c-3.52539-32.90967-1.06982-58.66406,7.50586-78.73486a24.99166,24.99166,0,0,1,16.5669-14.17969l22.24951-1.12305.11523.05567A26.00516,26.00516,0,0,1,855.156,502.90018c-7.15625,18.86328-13.14844,38.50293-8.57861,54.34619a5.12194,5.12194,0,0,1-.48389,3.9834,4.88411,4.88411,0,0,1-3.11572,2.30908L800.59933,573.6199a4.96422,4.96422,0,0,1-4.0166-.77734Z"
     transform="translate(-254 -200.06165)"
     fill="#6c63ff"
     id="path106"
     style="fill:#00ffff" />
  <circle
     cx="579.39612"
     cy="242.32319"
     r="24.56103"
     fill="#ffb8b8"
     id="circle108" />
  <path
     d="M765.24342,461.83787l-19.1416,8.44957a3.00328,3.00328,0,0,1-3.956-1.533l-.47343-1.07251a3.00328,3.00328,0,0,1,1.533-3.956l19.1416-8.44957a3.00328,3.00328,0,0,1,3.956,1.533l.47343,1.07251A3.00328,3.00328,0,0,1,765.24342,461.83787Z"
     transform="translate(-254 -200.06165)"
     fill="#ccc"
     id="path110" />
  <path
     d="M772.24342,474.83787l-19.1416,8.44957a3.00328,3.00328,0,0,1-3.956-1.533l-.47343-1.07251a3.00328,3.00328,0,0,1,1.533-3.956l19.1416-8.44957a3.00328,3.00328,0,0,1,3.956,1.533l.47343,1.07251A3.00328,3.00328,0,0,1,772.24342,474.83787Z"
     transform="translate(-254 -200.06165)"
     fill="#ccc"
     id="path112" />
  <path
     d="M787.00509,525.615l-42.67431-33.666a10.51709,10.51709,0,0,1-1.03614.30566,11.02708,11.02708,0,0,1-8.81787-1.69141,10.9127,10.9127,0,0,1-4.62646-7.73339,11.02293,11.02293,0,0,1,7.209-11.63819,11.00361,11.00361,0,0,1,14.42627,7.8374,10.5714,10.5714,0,0,1,.229,1.45215L794.196,504.98856l10.57178-6.08643,11.71093,15.332-16.41406,11.69922a10.94192,10.94192,0,0,1-13.05957-.31836Z"
     transform="translate(-254 -200.06165)"
     fill="#ffb8b8"
     id="path114" />
  <path
     d="M821.686,519.00884l-24.34869-16.55738,11.44288-16.20686a11.16823,11.16823,0,0,1,13.92862-3.64l0,0a11.16822,11.16822,0,0,1,5.89441,13.2826Z"
     transform="translate(-254 -200.06165)"
     fill="#6c63ff"
     id="path116"
     style="fill:#00ffff" />
  <path
     d="m 577.01842,226.35744 c -6.31271,4.32051 -14.60145,8.76174 -21.04891,4.16075 -4.23352,-3.02109 -5.56737,-8.61545 -3.8506,-13.52486 3.08726,-8.82857 11.56943,-12.71531 19.68052,-15.69459 10.54441,-3.87305 22.02573,-6.95424 32.91112,-4.18055 10.88539,2.77369 20.5056,13.31292 18.54058,24.37293 -1.58022,8.89423 -9.97,16.29492 -8.779,25.24958 1.19867,9.01215 11.33379,13.75589 20.28149,15.36658 8.9477,1.61069 18.96039,2.12822 25.39074,8.5552 8.2031,8.1988 6.15465,22.85325 -1.56414,31.50955 -7.71879,8.6563 -19.36683,12.58011 -30.6538,15.24757 -14.95454,3.53422 -31.12905,5.39161 -45.33209,-0.47378 -14.20304,-5.86539 -25.25565,-21.65433 -21.14126,-36.45976 1.73791,-6.2538 5.83191,-11.5391 9.78854,-16.68451 3.95663,-5.14541 7.9631,-10.526 9.47238,-16.83888 1.25772,-5.26073 0.32682,-11.36869 -3.16182,-15.31484 a 4.437,4.437 0 0 1 -0.59439,-5.18643 z"
     fill="#2f2e41"
     id="path118"
     style="fill:#241c1f" />
  <path
     d="m 141.09527,432.41028 c -12.30234,0.83628 -14.25984,-1.09967 -21.1469,-12.36212 -8.55796,-14.35178 -7.41448,-33.15215 -5.95342,-50.43248 l 4.32155,-51.11185 14.33341,19.63015 c 10.30776,14.11681 16.88703,27.84101 22.00271,45.16951 5.11571,17.32849 -2.1454,35.74238 -13.55735,49.10679"
     fill="#e6e6e6"
     id="path120"
     style="fill:#99ff55;stroke-width:0.999998"
     sodipodi:nodetypes="ccscssc" />
  <path
     d="m 143.33239,418.5308 a 45.248476,31.556815 74.604924 0 1 -29.2324,10.25674 C 99.728237,423.25025 88.244663,406.10032 77.933251,390.00856 l -30.499132,-47.59627 21.219436,5.46874 c 15.25976,3.9328 30.909653,8.05658 45.161255,18.92166 14.2516,10.86508 27.02945,30.09231 28.89283,50.77384"
     fill="#e6e6e6"
     id="path124"
     style="fill:#99ff55;stroke-width:1" />
  <path
     d="m 130.37426,428.63031 c 6.48067,-22.56006 13.27824,-48.08775 1.24706,-72.19528 -3.35021,-6.69872 -7.87065,-12.82651 -13.31788,-18.05339 -1.71406,-1.6498 -1.71096,-1.64679 0,0 9.08922,8.79834 13.18812,22.79003 15.36254,34.83717 2.11679,11.57105 0.97031,23.06626 -1.35976,34.00519 -1.42725,6.70042 -3.31093,13.24059 -5.18836,19.77616 -0.59999,2.08862 2.64941,3.74316 3.25642,1.63013 z"
     fill="#f2f2f2"
     id="path126"
     style="fill:#eef4d7;stroke-width:0.999996"
     sodipodi:nodetypes="sccccssss" />
  <path
     d="m 144.01892,471.20744 c -3.48832,-13.09246 -7.15363,-21.41076 -11.71028,-33.60432 h -6.95792 c -10.06033,19.98895 -14.48369,36.05969 -21.56473,59.28016 h 47.82096 z"
     fill="#f2f2f2"
     id="path128"
     style="fill:#80e5ff;stroke-width:0.999999"
     sodipodi:nodetypes="cccccc" />
  <path
     sodipodi:type="star"
     style="opacity:1;fill:#00ffff;stroke:#00ffff;stroke-width:9.56964;stroke-miterlimit:0;paint-order:fill markers stroke"
     id="path137"
     sodipodi:sides="3"
     sodipodi:cx="370.17386"
     sodipodi:cy="284.02087"
     sodipodi:r1="30.823498"
     sodipodi:r2="15.411749"
     sodipodi:arg1="0.82884906"
     sodipodi:arg2="1.8760466"
     inkscape:flatsided="false"
     inkscape:rounded="0"
     inkscape:randomized="0"
     d="m 391.00206,306.74254 -25.45992,-8.02238 -25.45992,-8.02237 19.67754,-18.03775 19.67754,-18.03775 5.78238,26.06013 z"
     inkscape:transform-center-x="-4.6269975"
     inkscape:transform-center-y="4.7957836"
     transform="matrix(0.17804696,0.56437663,-0.57210961,0.15772165,475.49386,26.846361)" />
  <g
     id="g1009"
     transform="matrix(0.82616438,0,0,1.217161,42.312176,110.57387)"
     style="fill:#99ff55;stroke-width:0.997229">
    <path
       d="m 105.65243,265.0421 a 30.941168,39.154064 78.083894 0 1 -1.19779,-30.47664 c 8.10827,-12.76223 25.04794,-20.28805 40.82768,-26.90033 l 46.6734,-19.55782 -9.7464,19.41135 c -7.00904,13.95948 -14.27162,28.25688 -26.72983,39.78413 -12.45821,11.52726 -31.42579,19.87097 -48.88801,17.33433"
       fill="#e6e6e6"
       id="path124-4"
       style="fill:#99ff55;stroke-width:0.997229" />
    <path
       d="m 106.59148,264.63712 c 24.18889,-5.99822 47.55801,-21.13239 56.7947,-43.76743 2.56102,-6.29414 3.76602,-12.9898 3.55013,-19.72644 -0.064,-2.12292 -0.0639,-2.11906 0,0 0.30085,11.28812 -7.31381,22.5671 -14.92906,31.40559 -7.29217,8.50746 -17.07607,14.86552 -27.35489,20.11753 -6.29609,3.21703 -12.825,6.04103 -19.34548,8.86621 -2.08378,0.90287 -6.464931,5.02622 -4.19935,4.46442 z"
       fill="#f2f2f2"
       id="path126-5"
       style="fill:#99ff55;stroke-width:0.997229"
       sodipodi:nodetypes="sccccssss" />
  </g>
  <rect
     style="fill:#99ff55;fill-rule:evenodd;stroke-width:1"
     id="rect1011"
     width="6.9579153"
     height="22.661314"
     x="125.35072"
     y="414.9418" />
  <path
     d="m 124.70302,408.16793 c -8.27901,-18.48908 -18.00167,-39.1128 -39.398777,-48.34124 -5.950285,-2.56033 -12.357236,-4.09387 -18.87583,-4.51806 -2.054004,-0.13683 -2.050274,-0.13656 0,0 10.919676,0.75848 21.429006,7.71629 29.580785,14.45962 7.848382,6.46113 13.494022,14.68471 18.046132,23.19854 2.78829,5.21499 5.18512,10.57772 7.58351,15.93394 0.76648,1.71173 3.8396,0.99892 3.06418,-0.73282 z"
     fill="#f2f2f2"
     id="path126-2"
     style="fill:#e2e3db;stroke-width:0.999992"
     sodipodi:nodetypes="sccccssss" />
  <path
     d="m 134.01399,416.60337 c 23.19152,-15.08976 48.95723,-32.43948 56.87365,-58.29649 2.19338,-7.18849 2.90459,-14.51169 2.09536,-21.57526 -0.25072,-2.22681 -0.25029,-2.22276 0,0 1.29097,11.84892 -5.86942,25.37542 -13.2401,36.32646 -7.0542,10.5328 -16.95322,19.32833 -27.47563,27.06208 -6.44532,4.73716 -13.17294,9.10916 -19.89144,13.4806 -2.14709,1.39702 -0.53401,4.41594 1.63818,3.0026 z"
     fill="#f2f2f2"
     id="path126-2-9"
     style="fill:#e2e3db;stroke-width:0.999998"
     sodipodi:nodetypes="sccccssss"
     inkscape:transform-center-x="8.3288979"
     inkscape:transform-center-y="-7.6118762" />
</svg>
