<?xml version="1.0" encoding="UTF-8" standalone="no"?>
<svg
   xmlns:dc="http://purl.org/dc/elements/1.1/"
   xmlns:cc="http://creativecommons.org/ns#"
   xmlns:rdf="http://www.w3.org/1999/02/22-rdf-syntax-ns#"
   xmlns:svg="http://www.w3.org/2000/svg"
   xmlns="http://www.w3.org/2000/svg"
   xmlns:sodipodi="http://sodipodi.sourceforge.net/DTD/sodipodi-0.dtd"
   xmlns:inkscape="http://www.inkscape.org/namespaces/inkscape"
   inkscape:version="1.0 (4035a4fb49, 2020-05-01)"
   sodipodi:docname="undraw_A_day_at_the_park_re_9kxj.svg"
   version="1.1"
   viewBox="0 0 763.89543 628.23639"
   height="628.23639"
   width="763.89543"
   data-name="Layer 1"
   id="a6835eff-9637-4cbf-a41d-043a371e68bf">
  <metadata
     id="metadata123">
    <rdf:RDF>
      <cc:Work
         rdf:about="">
        <dc:format>image/svg+xml</dc:format>
        <dc:type
           rdf:resource="http://purl.org/dc/dcmitype/StillImage" />
        <dc:title></dc:title>
      </cc:Work>
    </rdf:RDF>
  </metadata>
  <defs
     id="defs121" />
  <sodipodi:namedview
     inkscape:current-layer="a6835eff-9637-4cbf-a41d-043a371e68bf"
     inkscape:window-maximized="1"
     inkscape:window-y="-8"
     inkscape:window-x="-8"
     inkscape:cy="470.90967"
     inkscape:cx="210.43187"
     inkscape:zoom="1.2110838"
     showgrid="false"
     id="namedview119"
     inkscape:window-height="705"
     inkscape:window-width="1360"
     inkscape:pageshadow="2"
     inkscape:pageopacity="0"
     guidetolerance="10"
     gridtolerance="10"
     objecttolerance="10"
     borderopacity="1"
     bordercolor="#666666"
     pagecolor="#ffffff" />
  <path
     style="stroke-width:0.999998"
     id="path2"
     fill="#f2f2f2"
     d="m 234.72845,330.07061 c 0,-36.60491 31.57371,-123.46656 70.52186,-123.46656 38.94815,0 70.52186,86.86165 70.52186,123.46656 a 70.52188,66.323926 0 0 1 -141.04372,0 z" />
  <path
     style="stroke-width:0.999998;fill:#008000"
     id="path4"
     fill="#3f3d56"
     d="M 305.25029,491.32001 A 0.57968,0.54517341 0 0 1 304.6704,490.775 V 262.26661 a 0.57989,0.54537091 0 0 1 1.15977,0 V 490.775 a 0.57967,0.545164 0 0 1 -0.57988,0.54501 z" />
  <path
     style="stroke-width:0.999998;fill:#008000"
     id="path6"
     fill="#3f3d56"
     d="m 305.25029,306.38178 a 0.57826,0.54383793 0 0 1 -0.41007,-0.15966 l -27.91244,-26.23301 a 0.57968,0.54517341 0 0 1 0.82014,-0.77066 l 27.91243,26.23301 a 0.57949,0.54499472 0 0 1 -0.41006,0.93032 z" />
  <path
     style="stroke-width:0.999998;fill:#008000"
     id="path8"
     fill="#3f3d56"
     d="m 305.25029,351.79639 a 0.5795,0.54500412 0 0 1 -0.41007,-0.93033 l 46.74444,-43.93236 a 0.57968,0.54517341 0 0 1 0.82014,0.77066 l -46.74445,43.93232 a 0.57831,0.54388496 0 0 1 -0.41006,0.15971 z" />
  <path
     style="stroke-width:0.999998"
     id="path10"
     fill="#e6e6e6"
     d="m 114.72845,291.36817 c 0,-45.39068 39.15191,-153.10054 87.44824,-153.10054 48.29633,0 87.44825,107.70984 87.44825,153.10054 a 87.44827,82.242739 0 0 1 -174.89649,0 z" />
  <path
     style="stroke-width:0.999998;fill:#008000"
     id="path12"
     fill="#3f3d56"
     d="M 202.17666,491.32001 A 0.7188,0.67601201 0 0 1 201.4576,490.6442 V 207.29011 a 0.71907,0.67626594 0 0 1 1.43813,0 V 490.6442 a 0.71881,0.67602142 0 0 1 -0.71907,0.67581 z" />
  <path
     style="stroke-width:0.999998"
     id="path14"
     fill="#3f3d56"
     d="m 202.17666,261.99364 a 0.717,0.67431916 0 0 1 -0.50849,-0.19799 L 167.0563,229.26629 a 0.71881654,0.67602757 0 0 1 1.017,-0.95563 l 34.61187,32.52936 a 0.71858,0.67580511 0 0 1 -0.50849,1.15362 z" />
  <path
     style="stroke-width:0.999998;fill:#008000"
     id="path16"
     fill="#3f3d56"
     d="m 202.17666,318.30847 a 0.71859,0.67581451 0 0 1 -0.50849,-1.15362 l 57.96386,-54.47679 a 0.71881654,0.67602757 0 1 1 1.017,0.95563 l -57.96388,54.47679 a 0.71718,0.67448845 0 0 1 -0.50849,0.19799 z" />
  <path
     style="stroke-width:0.999998"
     id="path18"
     fill="#6c63ff"
     d="M 0,213.06003 C 0,149.89278 54.44833,-2.4274157e-6 121.61374,-2.4274157e-6 188.77915,-2.4274157e-6 243.22748,149.89277 243.22748,213.06003 A 121.61374,114.37444 0 0 1 0,213.06003 Z" />
  <path
     style="fill:#058e20;fill-opacity:1;stroke-width:0.999998"
     id="path20"
     fill="#3f3d56"
     d="m 121.61372,491.32001 a 1,0.94047303 0 0 1 -1,-0.94047 V 96.054073 a 1,0.94047303 0 1 1 2,0 V 490.37954 a 1,0.94047303 0 0 1 -1,0.94047 z" />
  <path
     style="stroke-width:0.999998;fill:#008000"
     id="path22"
     fill="#3f3d56"
     d="m 121.61372,172.18141 a 0.99683,0.93749173 0 0 1 -0.70715,-0.27555 l -48.13452,-45.269 a 1,0.94047303 0 0 1 1.4143,-1.32988 l 48.13452,45.26898 a 1,0.94047303 0 0 1 -0.70715,1.60539 z" />
  <path
     style="stroke-width:0.999998;fill:#008000"
     id="path24"
     fill="#3f3d56"
     d="m 121.61372,250.5511 a 1,0.94047303 0 0 1 -0.70715,-1.60539 l 80.61,-75.81186 a 1,0.94047303 0 1 1 1.41431,1.32989 l -80.61,75.81186 a 0.997,0.93765161 0 0 1 -0.70716,0.2755 z" />
  <path
     style="stroke-width:0.999998;fill:#ffffff"
     id="path26"
     fill="#3f3d56"
     d="m 762.89544,492.0195 h -743 a 1,0.94047303 0 0 1 0,-1.88094 h 743 a 1,0.94047303 0 0 1 0,1.88094 z" />
  <path
     style="stroke-width:0.999998;fill:#ffffff;fill-opacity:1"
     id="path28"
     fill="#3f3d56"
     d="m 703.93632,417.56501 a 2.61659,2.4608323 0 1 0 0,-4.92166 h -24.8576 v -9.84334 h 24.8576 a 2.6165929,2.460835 0 1 0 0,-4.92167 h -211.944 a 2.6165929,2.460835 0 0 0 0,4.92167 h 24.85763 v 9.84334 h -24.85761 a 2.61659,2.4608323 0 0 0 0,4.92166 h 24.85763 v 9.84334 h -24.85763 a 2.616595,2.460837 0 0 0 0,4.92167 h 24.85763 v 9.84334 h -22.241 a 5.23319,4.9216741 0 0 0 0,9.84334 h 21.17294 a 3.90011,3.6679483 0 0 0 -0.2402,1.23041 v 34.45169 a 3.92489,3.6912532 0 0 0 7.84978,0 v -34.45169 a 3.9001,3.6679389 0 0 0 -0.24019,-1.23041 h 149.62611 a 3.90011,3.6679483 0 0 0 -0.2402,1.23041 v 34.45169 a 3.92489,3.6912532 0 0 0 7.84978,0 v -34.45169 a 3.9001,3.6679389 0 0 0 -0.24019,-1.23041 h 21.17292 a 5.23319,4.9216741 0 1 0 0,-9.84334 h -22.241 v -9.84337 h 24.8576 a 2.6166,2.4608417 0 1 0 0,-4.92168 h -24.8576 v -9.8433 z m -181.85317,-14.765 h 151.76236 v 9.84334 H 522.08315 Z m 151.76236,39.37335 H 522.08315 v -9.84337 h 151.76236 z m 0,-14.76501 H 522.08315 v -9.84334 h 151.76236 z" />
  <path
     style="stroke-width:0.999998"
     id="path30"
     fill="#ffb8b8"
     d="m 318.28405,449.90815 a 8.32226,7.8268611 0 0 0 -8.48768,-8.96195 l -53.30176,-50.68443 -10.52963,13.84368 55.70488,45.46811 a 8.36731,7.8692294 0 0 0 16.61419,0.33466 z" />
  <path
     style="stroke-width:0.999998"
     id="path32"
     fill="#6c63ff"
     d="m 289.03533,424.40337 -9.6045,9.01868 a 3.49655,3.288411 0 0 1 -4.90761,0.0186 l -37.17527,-34.37263 a 13.63679,12.825033 0 1 1 19.31844,-18.10423 l 32.39985,38.8298 a 3.49807,3.2898405 0 0 1 -0.0309,4.60979 z" />
  <ellipse
     ry="17.894457"
     rx="19.027081"
     style="stroke-width:0.999998"
     inkscape:transform-center-y="-13.178587"
     inkscape:transform-center-x="-1.1677256"
     id="circle34"
     fill="#ffb8b8"
     cy="342.84064"
     cx="244.15482" />
  <polygon
     style="stroke-width:1.03116"
     transform="scale(1,0.94047303)"
     id="polygon36"
     fill="#ffb8b8"
     points="219.711,583.041 212.601,570.961 181.031,589.544 185.849,597.728 " />
  <path
     style="stroke-width:0.999998"
     id="path38"
     fill="#2f2e41"
     d="m 182.47425,551.00718 9.48783,15.15928 3.8e-4,6.2e-4 a 11.91934,11.209818 0 0 1 -4.2263,15.34705 l -0.33382,0.18477 -15.53428,-24.82027 z" />
  <polygon
     style="stroke-width:1.03116"
     transform="scale(1,0.94047303)"
     id="polygon40"
     fill="#ffb8b8"
     points="250.868,582.396 236.851,582.397 236.852,619.03 246.35,619.03 " />
  <path
     style="stroke-width:0.999998"
     id="path42"
     fill="#2f2e41"
     d="m 234.42972,579.26479 18.70386,-7.2e-4 h 7.5e-4 a 11.91936,11.209837 0 0 1 11.91969,11.20997 v 0.36429 l -30.62373,9.4e-4 z" />
  <path
     style="stroke-width:0.999998"
     id="path44"
     fill="#2f2e41"
     d="m 198.66904,561.3074 a 3.48078,3.2735797 0 0 1 -2.80748,-1.33547 l -9.15968,-11.69984 a 3.48577,3.2782727 0 0 1 0.87115,-4.67025 l 40.75932,-25.60315 -24.59363,-60.8172 52.59276,4.08184 1.77141,52.26287 a 27.92416,26.261919 0 0 1 -13.97933,23.62307 l -43.71284,23.71768 a 3.47526,3.2683883 0 0 1 -1.74168,0.44045 z" />
  <path
     style="stroke-width:0.999998"
     id="path46"
     fill="#2f2e41"
     d="m 237.13892,575.1865 a 3.486,3.278489 0 0 1 -3.47739,-3.16187 l -1.92745,-50.91388 23.86679,-1.1825 -1.9004,51.27958 a 3.47624,3.26931 0 0 1 -3.25345,3.15691 l -13.07112,0.81466 c -0.0793,0.005 -0.15831,0.008 -0.23698,0.008 z" />
  <path
     style="stroke-width:0.999998"
     id="path48"
     fill="#6c63ff"
     d="m 254.41814,471.37372 c -6.07228,0 -19.28176,-6.42337 -26.64486,-8.71297 -1.10151,0.82889 -7.1528,5.08435 -14.21632,4.30669 -4.35836,-0.48098 -8.19529,-2.80116 -11.40411,-6.89649 -7.08603,-9.04461 7.20487,-42.47962 15.79487,-73.42538 3.61375,-13.01823 11.86591,-26.33629 25.85811,-23.47891 v 0 a 26.782,25.187749 0 0 1 20.20972,18.48962 c 1.61727,6.19144 0.226,13.4743 -0.78981,18.79272 a 27.15741,25.540812 0 0 0 -0.72589,5.44579 c 0.49855,3.751 -4.7318,62.57814 -6.51267,65.09041 -0.1897,0.26752 -0.73818,0.38852 -1.56904,0.38852 z" />
  <path
     style="stroke-width:0.999998"
     id="path50"
     fill="#ffb8b8"
     d="m 240.20409,471.47788 a 8.32219,7.8267952 0 0 0 0.72944,-11.98186 l 0.376,-71.28598 -17.85247,2.79581 5.24405,69.19266 a 8.36731,7.8692294 0 0 0 11.503,11.27937 z" />
  <path
     style="stroke-width:0.999998"
     id="path52"
     fill="#6c63ff"
     d="m 244.33313,433.9903 h -19.22908 a 3.49655,3.288411 0 0 1 -3.48608,-3.24869 l -0.47208,-49.02699 a 13.63679,12.825033 0 1 1 27.27212,0.0313 l -0.599,49.00351 a 3.49807,3.2898405 0 0 1 -3.48588,3.24087 z" />
  <path
     style="stroke-width:0.999998"
     inkscape:transform-center-y="-14.8386"
     inkscape:transform-center-x="-7.5910299"
     id="path54"
     fill="#2f2e41"
     d="m 230.60126,357.53851 a 19.30481,18.155653 0 0 1 -17.04535,-15.96518 22.21133,20.889157 0 0 1 1.57498,-9.38891 27.07831,25.46642 0 0 1 38.45765,-12.93697 c 2.23136,1.1763 4.38836,2.78083 5.25194,5.04533 0.86357,2.2645 -0.0808,5.25516 -2.49628,6.04686 -1.57853,0.51738 -3.45694,0.0482 -4.88953,0.85845 -2.05772,1.1637 -1.81667,4.01468 -1.14404,6.18241 0.67264,2.16771 1.41817,4.78548 -0.19551,6.45765 -1.50365,1.55815 -4.19913,1.2876 -6.2685,0.48754 -2.06937,-0.80003 -4.07239,-2.02126 -6.30948,-1.98715 -3.26282,0.0497 -5.86424,2.88698 -6.57212,5.8829 -0.70789,2.99593 0.0273,6.10754 0.76057,9.09805 z" />
  <path
     style="stroke-width:0.999998"
     id="path56"
     fill="#cccccc"
     d="m 312.05677,449.49354 c 12.36,-2.62779 26.36283,6.46491 26.79686,18.67159 0.12208,3.43339 -0.94786,7.039 -3.757,9.37474 a 9.24468,8.6943722 0 0 1 -8.76843,1.95828 c -5.76937,-1.81374 -6.0774,-9.37444 -2.98251,-13.41258 4.19058,-5.46776 12.49239,-6.40139 19.07988,-5.75106 a 45.21218,42.520836 0 0 1 22.13147,8.66821 c 12.85879,9.11293 21.0467,23.07961 27.674,36.57385 a 196.07067,184.39918 0 0 1 14.68736,43.40754 q 0.5606,2.82307 1.02714,5.66144 a 1.17021,1.1005509 0 0 0 1.44076,0.74391 1.19172,1.1207805 0 0 0 0.791,-1.35499 198.65981,186.83419 0 0 0 -14.90069,-47.40221 C 388.3374,492.00803 379.58914,476.83863 365.67226,467.079 A 47.20629,44.396243 0 0 0 341.872,458.10427 c -7.29887,-0.60949 -15.94187,0.84271 -20.48082,6.81289 -3.58083,4.70989 -3.21708,12.53751 2.32352,15.81771 a 10.57431,9.9448534 0 0 0 10.07942,0.19057 12.90878,12.140359 0 0 0 6.80637,-7.93506 c 1.96732,-6.77949 -1.02,-14.11233 -6.14179,-18.95818 a 25.81243,24.275894 0 0 0 -18.16767,-7.18526 22.87667,21.514891 0 0 0 -4.884,0.54762 c -1.45914,0.31022 -0.80705,2.40864 0.64975,2.09893 z" />
  <path
     style="stroke-width:0.999998"
     id="path58"
     fill="#6c63ff"
     d="m 371.66372,583.74187 -7.6808,-12.33336 9.471,-5.21714 7.68081,12.33295 v 3.8e-4 a 5.4880132,5.1613284 0 0 1 -9.471,5.21715 z" />
  <ellipse
     ry="6.3523874"
     rx="6.7544599"
     style="stroke-width:0.999998"
     id="circle60"
     fill="#6c63ff"
     cy="551.75391"
     cx="346.26758" />
  <path
     style="stroke-width:0.999998"
     id="path62"
     fill="#6c63ff"
     d="m 401.38188,583.74187 -7.68081,-12.33336 9.47084,-5.21714 7.68081,12.33295 a 5.4880478,5.1613609 0 0 1 -9.47084,5.21753 z" />
  <path
     style="stroke-width:0.999998;fill:#b3b3b3"
     id="path64"
     fill="#3f3d56"
     d="m 347.55088,564.55133 a 14.36941,13.514043 0 0 1 14.35323,-13.49885 h 45.43616 a 6.07374,5.7121887 0 0 1 6.06661,5.70567 v 4.86242 a 17.48924,16.448159 0 0 1 -17.46951,16.4296 h -34.03326 a 14.36941,13.514043 0 0 1 -14.35323,-13.49884 z" />
  <path
     style="stroke-width:0.999998;fill:#b3b3b3"
     id="path66"
     fill="#3f3d56"
     d="m 358.02887,585.3323 v -14.29289 h 10.976 v 14.29288 a 5.488,5.161316 0 1 1 -10.976,0 z" />
  <path
     style="stroke-width:0.999998;fill:#b3b3b3"
     id="path68"
     fill="#3f3d56"
     d="m 389.87819,585.3323 v -14.29289 h 10.976 v 14.29288 a 5.488,5.161316 0 1 1 -10.976,0 z" />
  <path
     style="stroke-width:0.999998"
     id="path70"
     fill="#6c63ff"
     d="m 434.53502,528.78348 a 6.75447,6.3523969 0 0 1 10.53252,7.9556 l -11.10263,13.00103 -10.53252,-7.95561 z" />
  <path
     style="stroke-width:0.999998;fill:#b3b3b3"
     id="path72"
     fill="#3f3d56"
     d="m 407.79044,554.39473 8.89465,-10.41551 a 13.02371,12.248448 0 0 1 18.28863,-1.87777 l 2.77906,2.09914 a 15.52808,14.60374 0 0 1 2.38056,20.5075 l -7.32818,8.5812 a 4.87612,4.5858594 0 0 1 -6.84731,0.7029 l -17.41989,-13.15785 a 4.876,4.5857465 0 0 1 -0.74752,-6.43961 z" />
  <path
     style="stroke-width:0.999998;fill:#b3b3b3"
     id="path74"
     fill="#3f3d56"
     d="m 435.85677,527.23574 a 4.6436901,4.3672653 0 1 1 7.2411,5.46947 l -12.42437,14.54877 -7.24111,-5.46948 z" />
  <path
     style="stroke-width:0.999998;fill:#b3b3b3"
     id="path76"
     fill="#3f3d56"
     d="m 418.05798,551.55452 19.09018,14.41952 a 6.754462,6.3523893 0 1 1 -8.45914,9.90555 l -19.09019,-14.41952 z" />
  <ellipse
     style="stroke-width:1.0009"
     id="ellipse78"
     fill="#6c63ff"
     transform="matrix(0.64940417,-0.76044344,0.79795114,0.60272214,0,0)"
     ry="1.5468132"
     rx="2.7476759"
     cy="707.21124"
     cx="-194.87434" />
  <ellipse
     ry="13.377429"
     rx="14.22415"
     style="stroke-width:0.999998"
     id="circle80"
     fill="#2f2e41"
     cy="376.41632"
     cx="608.64343" />
  <polygon
     style="stroke-width:1.03116"
     transform="scale(1,0.94047303)"
     id="polygon82"
     fill="#a0616a"
     points="564.054,493.249 573.246,493.249 573.245,517.272 567.017,517.271 " />
  <path
     style="stroke-width:0.999998"
     id="path84"
     fill="#2f2e41"
     d="m 562.56864,484.80613 h 12.0112 v 7.11243 H 555.006 v 0 a 7.56261,7.1124307 0 0 1 7.56264,-7.11243 z" />
  <polygon
     style="stroke-width:1.03116"
     transform="scale(1,0.94047303)"
     id="polygon86"
     fill="#a0616a"
     points="561.946,488.123 570.716,490.875 563.523,513.796 557.581,511.931 " />
  <path
     style="stroke-width:0.999998"
     id="path88"
     fill="#2f2e41"
     d="m 553.86937,478.60763 11.46016,3.38229 -2.26438,6.78613 -18.67581,-5.51188 v 0 a 7.1124307,7.56261 89.999998 0 1 9.48003,-4.65654 z" />
  <path
     style="fill:#0000ff;stroke-width:0.999998"
     id="path90"
     fill="#2f2e41"
     d="m 565.54952,474.19669 a 2.26665,2.1317232 0 0 1 -0.7986,-0.1367 l -4.58185,-1.61574 a 2.294,2.1574451 0 0 1 -1.42951,-2.47653 c 1.15356,-4.87797 5.085,-21.48546 7.23772,-30.39317 2.55317,-10.56589 39.79856,-12.52921 41.38272,-12.60759 l 0.13023,-0.007 4.18981,4.95169 c 1.514,4.57657 1.03411,8.14627 -1.42629,10.61022 -7.1793,7.18888 -28.61462,2.72802 -31.17065,2.16347 l -11.39316,28.12658 a 2.29261,2.1561379 0 0 1 -2.14042,1.38432 z" />
  <path
     style="fill:#0000ff;stroke-width:0.999998"
     id="path92"
     fill="#2f2e41"
     d="m 572.15359,477.54105 a 2.26688,2.1319395 0 0 1 -0.7986,-0.1367 l -4.58184,-1.61574 a 2.294,2.1574451 0 0 1 -1.42951,-2.47654 c 1.15355,-4.87796 5.085,-21.48545 7.23771,-30.39316 2.55317,-10.56589 39.79856,-12.52921 41.38273,-12.60759 l 0.13022,-0.007 4.18981,4.95169 c 1.514,4.57657 1.03411,8.14627 -1.42629,10.61022 -7.1793,7.18841 -28.6145,2.72802 -31.17065,2.16347 l -11.39316,28.12658 a 2.29261,2.1561379 0 0 1 -2.14042,1.38432 z" />
  <path
     style="stroke-width:0.999998"
     id="path94"
     fill="#a0616a"
     d="m 558.89731,408.73327 a 5.346,5.0277688 0 0 1 0.44952,0.66962 l 25.055,2.48258 3.60663,-4.65057 8.17417,4.20171 -7.08391,11.28541 -30.72793,-7.36835 a 5.33192,5.014527 0 1 1 0.52651,-6.6204 z" />
  <path
     style="fill:#00ffff;stroke-width:0.999998"
     id="path96"
     fill="#ccc"
     d="m 617.12137,437.15168 a 2.28629,2.1501941 0 0 1 -1.04118,-0.23935 c -5.01011,-2.39583 -14.7659,-6.54502 -23.81251,-7.4133 a 2.23129,2.0984681 0 0 1 -1.57251,-0.83608 2.29546,2.1588182 0 0 1 -0.42355,-1.67732 c 0.81633,-4.24999 2.689,-15.07202 2.44776,-23.74549 a 12.495,11.751211 0 0 1 9.43977,-11.68986 v 0 a 40.572,38.156872 0 0 1 5.03578,-0.9336 12.59622,11.846405 0 0 1 14.00029,13.74135 c -1.61332,8.98843 -3.23966,21.54237 -1.82615,30.30592 a 2.28952,2.1532318 0 0 1 -0.92386,2.07763 2.24987,2.1159421 0 0 1 -1.32384,0.4101 z" />
  <path
     style="fill:#00ffff;stroke-width:0.999998"
     id="path98"
     fill="#ccc"
     d="m 593.1831,414.28983 a 2.28406,2.1480968 0 0 1 -0.90761,-0.17823 l -6.5268,-2.6571 a 2.28891,2.1526581 0 0 1 -1.18977,-2.82694 l 5.04533,-10.96107 a 5.8419222,5.4941702 0 1 1 10.72256,4.36474 l -5.04521,10.96108 a 2.29144,2.1550375 0 0 1 -2.0985,1.29752 z" />
  <ellipse
     ry="11.734414"
     rx="12.47714"
     style="stroke-width:0.999998"
     id="circle100"
     fill="#a0616a"
     cy="379.54623"
     cx="608.12341" />
  <path
     style="stroke-width:0.999998"
     id="path102"
     fill="#2f2e41"
     d="m 595.42172,373.78103 a 45.00451,42.325528 0 0 0 19.46991,6.03342 l -2.0523,-2.31268 a 15.08155,14.183791 0 0 0 4.65879,0.87004 5.10215,4.7984345 0 0 0 4.15874,-1.83065 4.74575,4.4632499 0 0 0 0.31766,-4.12304 8.98863,8.4535641 0 0 0 -2.82774,-3.32532 16.83505,15.83291 0 0 0 -15.66916,-2.63367 10.06156,9.4626258 0 0 0 -4.67994,2.8233 c -1.18283,1.37232 -3.46,2.59501 -2.85437,4.26724 z" />
  <path
     style="stroke-width:0.999998"
     id="path104"
     fill="#2f2e41"
     d="m 610.22136,362.11487 a 38.34676,36.064094 0 0 0 -13.95134,-8.48473 19.62911,18.460649 0 0 0 -10.5691,-1.23371 c -3.52582,0.66729 -6.86016,2.96122 -7.84381,6.21465 -0.80434,2.66037 0.0262,5.52478 1.27444,8.0291 1.24824,2.50433 2.91472,4.82663 3.92415,7.42442 a 18.01791,16.945358 0 0 1 -18.13023,22.7236 c 3.46428,0.43686 6.65749,1.96794 10.04366,2.78286 3.38617,0.81492 7.38274,0.75971 9.89911,-1.52177 2.66242,-2.41388 2.71572,-6.3386 2.587,-9.81449 l -0.57406,-15.50108 c -0.0976,-2.63509 -0.18092,-5.35462 0.82952,-7.8141 1.01044,-2.45948 3.41185,-4.61315 6.21531,-4.59078 2.12475,0.0169 4.00534,1.22751 5.7093,2.42134 1.70396,1.19384 3.50751,2.46754 5.62393,2.64511 2.11642,0.17757 4.53289,-1.29544 4.37452,-3.28822" />
  <path
     style="stroke-width:0.999998"
     id="path106"
     fill="#a0616a"
     d="m 587.14633,434.13739 a 5.5903,5.2575264 0 1 1 2.15493,-10.11123 h 1.2e-4 a 5.36793,5.0483934 0 0 1 0.66626,0.3175 l 22.72854,-9.59683 0.63848,-5.79734 9.79733,-0.24658 -0.0649,9.65166 a 5.52712,5.1981073 0 0 1 -3.99348,4.94141 l -26.57987,7.11544 a 5.20848,4.898435 0 0 1 -0.18244,0.48686 5.611,5.2769942 0 0 1 -5.165,3.23915 z" />
  <path
     style="fill:#00ffff;stroke-width:0.999998"
     id="path108"
     fill="#ccc"
     d="m 622.3022,413.43421 a 2.28415,2.1481815 0 0 1 -0.895,0.22759 l -7.09865,0.41048 a 2.28892,2.1526675 0 0 1 -2.42192,-2.01381 l -0.77917,-11.92155 a 5.84193,5.4941776 0 1 1 11.6618,-0.67478 l 0.77927,11.92149 a 2.29145,2.1550469 0 0 1 -1.24628,2.05056 z" />
  <rect
     ry="1.77802"
     style="fill:#3f3d56;fill-opacity:1;stroke-width:0.999998"
     id="rect110"
     fill="#3f3d56"
     transform="scale(-1)"
     rx="1.77802"
     height="3.3443599"
     width="43.688469"
     y="-435.34277"
     x="-608.65222" />
  <path
     style="stroke-width:0.999998"
     id="path112"
     fill="#3f3d56"
     d="m 549.21559,432.23729 v -23.41051 a 3.30578,3.1089969 0 0 1 3.302,-3.10544 h 45.21249 a 3.30578,3.1089969 0 0 1 3.302,3.10544 v 23.41051 a 3.30577,3.1089875 0 0 1 -3.302,3.10544 h -45.21246 a 3.30577,3.1089875 0 0 1 -3.30203,-3.10544 z" />
  <ellipse
     ry="2.86659"
     rx="3.0480299"
     style="stroke-width:0.999998"
     id="circle114"
     fill="#ffffff"
     cy="421.63025"
     cx="573.95612" />
  <path
     style="stroke-width:0.999998"
     id="path116"
     fill="#6c63ff"
     d="m 247.44772,366.4254 h -11 a 4.0000031,3.761895 0 0 1 0,-7.52379 h 11 a 4.0000031,3.761895 0 0 1 0,7.52379 z" />
</svg>
